<mxfile host="Electron" modified="2024-08-09T09:49:58.581Z" agent="Mozilla/5.0 (Macintosh; Intel Mac OS X 10_15_7) AppleWebKit/537.36 (KHTML, like Gecko) draw.io/22.1.2 Chrome/114.0.5735.289 Electron/25.9.4 Safari/537.36" etag="YQ5do3tiCOVJ0JicABHU" version="22.1.2" type="device">
  <diagram name="Page-1" id="sH_MVRlp8SbcwZXTOfUF">
    <mxGraphModel dx="1314" dy="854" grid="1" gridSize="10" guides="1" tooltips="1" connect="1" arrows="1" fold="1" page="1" pageScale="1" pageWidth="827" pageHeight="1169" math="0" shadow="0">
      <root>
        <mxCell id="0" />
        <mxCell id="1" parent="0" />
        <mxCell id="7A4HWGMqPETNraUEaR28-10" value="" style="rounded=0;whiteSpace=wrap;html=1;fillColor=#f5f5f5;fontColor=#333333;strokeColor=#666666;" vertex="1" parent="1">
          <mxGeometry x="150" y="190" width="310" height="270" as="geometry" />
        </mxCell>
        <mxCell id="7A4HWGMqPETNraUEaR28-1" value="" style="rounded=0;whiteSpace=wrap;html=1;fillColor=#dae8fc;strokeColor=#6c8ebf;" vertex="1" parent="1">
          <mxGeometry x="170" y="210" width="60" height="230" as="geometry" />
        </mxCell>
        <mxCell id="7A4HWGMqPETNraUEaR28-2" value="" style="rounded=0;whiteSpace=wrap;html=1;fillColor=#ffe6cc;strokeColor=#d79b00;" vertex="1" parent="1">
          <mxGeometry x="240" y="210" width="60" height="230" as="geometry" />
        </mxCell>
        <mxCell id="7A4HWGMqPETNraUEaR28-3" value="" style="rounded=0;whiteSpace=wrap;html=1;fillColor=#fff2cc;strokeColor=#d6b656;" vertex="1" parent="1">
          <mxGeometry x="310" y="210" width="60" height="230" as="geometry" />
        </mxCell>
        <mxCell id="7A4HWGMqPETNraUEaR28-4" value="" style="rounded=0;whiteSpace=wrap;html=1;fillColor=#e1d5e7;strokeColor=#9673a6;" vertex="1" parent="1">
          <mxGeometry x="380" y="210" width="60" height="230" as="geometry" />
        </mxCell>
        <mxCell id="7A4HWGMqPETNraUEaR28-6" value="UI" style="text;html=1;strokeColor=none;fillColor=none;align=center;verticalAlign=middle;whiteSpace=wrap;rounded=0;" vertex="1" parent="1">
          <mxGeometry x="170" y="470" width="60" height="30" as="geometry" />
        </mxCell>
        <mxCell id="7A4HWGMqPETNraUEaR28-7" value="Auth" style="text;html=1;strokeColor=none;fillColor=none;align=center;verticalAlign=middle;whiteSpace=wrap;rounded=0;" vertex="1" parent="1">
          <mxGeometry x="240" y="470" width="60" height="30" as="geometry" />
        </mxCell>
        <mxCell id="7A4HWGMqPETNraUEaR28-8" value="Business" style="text;html=1;strokeColor=none;fillColor=none;align=center;verticalAlign=middle;whiteSpace=wrap;rounded=0;" vertex="1" parent="1">
          <mxGeometry x="310" y="470" width="60" height="30" as="geometry" />
        </mxCell>
        <mxCell id="7A4HWGMqPETNraUEaR28-9" value="Database" style="text;html=1;strokeColor=none;fillColor=none;align=center;verticalAlign=middle;whiteSpace=wrap;rounded=0;" vertex="1" parent="1">
          <mxGeometry x="380" y="470" width="60" height="30" as="geometry" />
        </mxCell>
        <mxCell id="7A4HWGMqPETNraUEaR28-11" value="" style="rounded=0;whiteSpace=wrap;html=1;fillColor=#1ba1e2;fontColor=#ffffff;strokeColor=#006EAF;" vertex="1" parent="1">
          <mxGeometry x="170" y="346" width="60" height="50" as="geometry" />
        </mxCell>
        <mxCell id="7A4HWGMqPETNraUEaR28-12" value="" style="rounded=0;whiteSpace=wrap;html=1;fillColor=#f0a30a;fontColor=#000000;strokeColor=#BD7000;" vertex="1" parent="1">
          <mxGeometry x="240" y="306" width="60" height="50" as="geometry" />
        </mxCell>
        <mxCell id="7A4HWGMqPETNraUEaR28-13" value="" style="rounded=0;whiteSpace=wrap;html=1;fillColor=#e3c800;fontColor=#000000;strokeColor=#B09500;" vertex="1" parent="1">
          <mxGeometry x="310" y="276" width="60" height="50" as="geometry" />
        </mxCell>
        <mxCell id="7A4HWGMqPETNraUEaR28-14" value="" style="rounded=0;whiteSpace=wrap;html=1;fillColor=#76608a;fontColor=#ffffff;strokeColor=#432D57;" vertex="1" parent="1">
          <mxGeometry x="380" y="236" width="60" height="50" as="geometry" />
        </mxCell>
        <mxCell id="7A4HWGMqPETNraUEaR28-15" value="" style="endArrow=classic;html=1;rounded=0;fillColor=#e51400;strokeColor=#B20000;strokeWidth=3;" edge="1" parent="1">
          <mxGeometry width="50" height="50" relative="1" as="geometry">
            <mxPoint x="140" y="406" as="sourcePoint" />
            <mxPoint x="490" y="226" as="targetPoint" />
          </mxGeometry>
        </mxCell>
      </root>
    </mxGraphModel>
  </diagram>
</mxfile>
